<svg width="13" height="15" viewBox="0 0 13 15" fill="none" xmlns="http://www.w3.org/2000/svg">
<path d="M4.76696 0.64834C4.97589 0.44874 5.3 0.451474 5.50893 0.651074C6.24821 1.35924 6.94196 2.12209 7.59018 2.94784C7.88482 2.5541 8.21964 2.12483 8.58125 1.77485C8.79286 1.57251 9.11964 1.57251 9.33125 1.77758C10.258 2.67988 11.0429 3.87201 11.5946 5.00398C12.1384 6.11955 12.5 7.25973 12.5 8.0636C12.5 11.5525 9.82679 14.5 6.5 14.5C3.13571 14.5 0.5 11.5498 0.5 8.06086C0.5 7.01092 0.976786 5.72856 1.71607 4.45987C2.46339 3.17204 3.51875 1.82953 4.76696 0.64834ZM6.54554 11.8751C7.22321 11.8751 7.82321 11.6837 8.38839 11.3009C9.51607 10.4971 9.81875 8.88934 9.14107 7.62612C9.02054 7.38004 8.7125 7.36363 8.53839 7.57144L7.86339 8.37257C7.68661 8.58037 7.36786 8.5749 7.20179 8.3589C6.75982 7.78471 5.96964 6.75937 5.51964 6.17697C5.35089 5.95823 5.02946 5.9555 4.85804 6.17424C3.95268 7.33629 3.49732 8.06907 3.49732 8.89207C3.5 10.765 4.85536 11.8751 6.54554 11.8751Z" fill="black"/>
</svg>
